{
  "accessors": [
    {
      "bufferView": 2,
      "componentType": 5126,
      "count": 1120,
      "max": [
        7.2710890769958496,
        4.5343151092529297,
        3.6459400653839111
      ],
      "min": [
        -7.2710890769958496,
        -0.45623201131820679,
        -3.6459400653839111
      ],
      "type": "VEC3"
    },
    {
      "bufferView": 2,
      "byteOffset": 13440,
      "componentType": 5126,
      "count": 1120,
      "max": [
        1,
        1,
        1
      ],
      "min": [
        -1,
        -1,
        -1
      ],
      "type": "VEC3"
    },
    {
      "bufferView": 3,
      "componentType": 5126,
      "count": 1120,
      "max": [
        1,
        1,
        1,
        1
      ],
      "min": [
        -1,
        -1,
        -1,
        -1
      ],
      "type": "VEC4"
    },
    {
      "bufferView": 1,
      "componentType": 5126,
      "count": 1120,
      "max": [
        1,
        1
      ],
      "min": [
        0,
        0
      ],
      "type": "VEC2"
    },
    {
      "bufferView": 0,
      "componentType": 5125,
      "count": 2808,
      "max": [
        1119
      ],
      "min": [
        0
      ],
      "type": "SCALAR"
    },
    {
      "bufferView": 2,
      "byteOffset": 26880,
      "componentType": 5126,
      "count": 247,
      "max": [
        4.7474446296691895,
        4.1891741752624512,
        4.189173698425293
      ],
      "min": [
        -9.3118762969970703,
        -4.1891727447509766,
        -4.1891746520996094
      ],
      "type": "VEC3"
    },
    {
      "bufferView": 2,
      "byteOffset": 29844,
      "componentType": 5126,
      "count": 247,
      "max": [
        1,
        0.99974799156188965,
        0.99974799156188965
      ],
      "min": [
        -0.81392514705657959,
        -0.99974793195724487,
        -0.99974799156188965
      ],
      "type": "VEC3"
    },
    {
      "bufferView": 3,
      "byteOffset": 17920,
      "componentType": 5126,
      "count": 247,
      "max": [
        0.99860388040542603,
        0.99992823600769043,
        0.99999803304672241,
        1
      ],
      "min": [
        -0.97772073745727539,
        -0.99999958276748657,
        -0.99984842538833618,
        1
      ],
      "type": "VEC4"
    },
    {
      "bufferView": 1,
      "byteOffset": 8960,
      "componentType": 5126,
      "count": 247,
      "max": [
        1,
        1
      ],
      "min": [
        0,
        0
      ],
      "type": "VEC2"
    },
    {
      "bufferView": 0,
      "byteOffset": 11232,
      "componentType": 5125,
      "count": 924,
      "max": [
        246
      ],
      "min": [
        0
      ],
      "type": "SCALAR"
    }
  ],
  "asset": {
    "extras": {
      "author": "leoskateman (https://sketchfab.com/leoskateman)",
      "license": "CC-BY-4.0 (http://creativecommons.org/licenses/by/4.0/)",
      "source": "https://sketchfab.com/models/178ebae36e204f5488ad0c2ceb25cd5a",
      "title": "Drum Set Indonesian inspiration"
    },
    "generator": "Sketchfab-3.33.1",
    "version": "2.0"
  },
  "bufferViews": [
    {
      "buffer": 0,
      "byteLength": 14928,
      "byteOffset": 0,
      "name": "floatBufferViews",
      "target": 34963
    },
    {
      "buffer": 0,
      "byteLength": 10936,
      "byteOffset": 14928,
      "byteStride": 8,
      "name": "floatBufferViews",
      "target": 34962
    },
    {
      "buffer": 0,
      "byteLength": 32808,
      "byteOffset": 25864,
      "byteStride": 12,
      "name": "floatBufferViews",
      "target": 34962
    },
    {
      "buffer": 0,
      "byteLength": 21872,
      "byteOffset": 58672,
      "byteStride": 16,
      "name": "floatBufferViews",
      "target": 34962
    }
  ],
  "buffers": [
    {
      "byteLength": 80544,
      "uri": "scene.bin"
    }
  ],
  "images": [
    {
      "uri": "textures/Material.001_baseColor.png"
    },
    {
      "uri": "textures/Material.001_normal.png"
    },
    {
      "uri": "textures/Material.001_metallicRoughness.png"
    },
    {
      "uri": "textures/Material.002_baseColor.png"
    },
    {
      "uri": "textures/Material.002_normal.png"
    }
  ],
  "materials": [
    {
      "doubleSided": true,
      "name": "Material.001",
      "normalTexture": {
        "index": 1,
        "scale": 1,
        "texCoord": 0
      },
      "pbrMetallicRoughness": {
        "baseColorFactor": [
          1,
          1,
          1,
          1
        ],
        "baseColorTexture": {
          "index": 0,
          "texCoord": 0
        },
        "metallicFactor": 0.29109019149999998,
        "metallicRoughnessTexture": {
          "index": 2,
          "texCoord": 0
        },
        "roughnessFactor": 1
      }
    },
    {
      "doubleSided": true,
      "emissiveFactor": [
        0,
        0,
        0
      ],
      "name": "Material.002",
      "normalTexture": {
        "index": 4,
        "scale": 1,
        "texCoord": 0
      },
      "pbrMetallicRoughness": {
        "baseColorFactor": [
          1,
          1,
          1,
          1
        ],
        "baseColorTexture": {
          "index": 3,
          "texCoord": 0
        },
        "metallicFactor": 0.55524113490000004,
        "roughnessFactor": 0.82394172570000002
      }
    }
  ],
  "meshes": [
    {
      "name": "Cube.002_Material.001_0",
      "primitives": [
        {
          "attributes": {
            "NORMAL": 1,
            "POSITION": 0,
            "TANGENT": 2,
            "TEXCOORD_0": 3
          },
          "indices": 4,
          "material": 0,
          "mode": 4
        }
      ]
    },
    {
      "name": "Cylinder.002_Cylinder.010_Material.002_0",
      "primitives": [
        {
          "attributes": {
            "NORMAL": 6,
            "POSITION": 5,
            "TANGENT": 7,
            "TEXCOORD_0": 8
          },
          "indices": 9,
          "material": 1,
          "mode": 4
        }
      ]
    }
  ],
  "nodes": [
    {
      "children": [
        1
      ],
      "name": "RootNode (gltf orientation matrix)",
      "rotation": [
        -0.70710678118654746,
        -0,
        -0,
        0.70710678118654757
      ]
    },
    {
      "children": [
        2
      ],
      "name": "RootNode (model correction matrix)"
    },
    {
      "children": [
        3
      ],
      "matrix": [
        1,
        0,
        0,
        0,
        0,
        0,
        1,
        0,
        0,
        -1,
        0,
        0,
        0,
        0,
        0,
        1
      ],
      "name": "8247e13be4fc40918fd2ca2a7b4e2795.fbx"
    },
    {
      "children": [
        4,
        6
      ],
      "name": "RootNode"
    },
    {
      "children": [
        5
      ],
      "matrix": [
        77.577041625976562,
        0,
        0,
        0,
        0,
        77.577041625975525,
        1.2638904757551522e-05,
        0,
        0,
        -1.2638904757551522e-05,
        77.577041625975525,
        0,
        20.91609001159668,
        36.442039489746094,
        2.1080701117170975e-05,
        1
      ],
      "name": "Cube.002"
    },
    {
      "mesh": 0,
      "name": "Cube.002_Material.001_0"
    },
    {
      "children": [
        7
      ],
      "matrix": [
        89.31258887905679,
        7.7101137919959619,
        -3.8250587164281754e-07,
        0,
        -7.7101137919957976,
        89.31258887905561,
        1.463800847287455e-05,
        0,
        1.6400654698644951e-06,
        -1.4550867725035616e-05,
        89.644760131834744,
        0,
        165.6435546875,
        631.15484619140625,
        0.00016694708028808236,
        1
      ],
      "name": "Cylinder.002_Cylinder.010"
    },
    {
      "mesh": 1,
      "name": "Cylinder.002_Cylinder.010_Material.002_0"
    }
  ],
  "samplers": [
    {
      "magFilter": 9729,
      "minFilter": 9987,
      "wrapS": 10497,
      "wrapT": 10497
    }
  ],
  "scene": 0,
  "scenes": [
    {
      "name": "OSG_Scene",
      "nodes": [
        0
      ]
    }
  ],
  "textures": [
    {
      "sampler": 0,
      "source": 0
    },
    {
      "sampler": 0,
      "source": 1
    },
    {
      "sampler": 0,
      "source": 2
    },
    {
      "sampler": 0,
      "source": 3
    },
    {
      "sampler": 0,
      "source": 4
    }
  ]
}

