{
  "accessors": [
    {
      "bufferView": 1,
      "componentType": 5126,
      "count": 414,
      "max": [
        -8.8782196044921875,
        1.7689000368118286,
        2.2915399074554443
      ],
      "min": [
        -32.969230651855469,
        -2.8891799449920654,
        -2.2915399074554443
      ],
      "type": "VEC3"
    },
    {
      "bufferView": 1,
      "byteOffset": 4968,
      "componentType": 5126,
      "count": 414,
      "max": [
        0.13477981090545654,
        1,
        0.98619890213012695
      ],
      "min": [
        -0.18552008271217346,
        -0.98223578929901123,
        -0.98619890213012695
      ],
      "type": "VEC3"
    },
    {
      "bufferView": 0,
      "componentType": 5125,
      "count": 648,
      "max": [
        413
      ],
      "min": [
        0
      ],
      "type": "SCALAR"
    },
    {
      "bufferView": 1,
      "byteOffset": 9936,
      "componentType": 5126,
      "count": 596,
      "max": [
        4.3009500503540039,
        1.7689000368118286,
        1.4913699626922607
      ],
      "min": [
        -46.210960388183594,
        -2.2466800212860107,
        -1.4913699626922607
      ],
      "type": "VEC3"
    },
    {
      "bufferView": 1,
      "byteOffset": 17088,
      "componentType": 5126,
      "count": 596,
      "max": [
        0.31668868660926819,
        0.99997544288635254,
        0.99386870861053467
      ],
      "min": [
        -0.18810942769050598,
        -0.98226940631866455,
        -0.99386870861053467
      ],
      "type": "VEC3"
    },
    {
      "bufferView": 0,
      "byteOffset": 2592,
      "componentType": 5125,
      "count": 912,
      "max": [
        595
      ],
      "min": [
        0
      ],
      "type": "SCALAR"
    },
    {
      "bufferView": 1,
      "byteOffset": 24240,
      "componentType": 5126,
      "count": 208,
      "max": [
        7.2763199806213379,
        0.84991997480392456,
        0.79354000091552734
      ],
      "min": [
        4.3009500503540039,
        -0.63555002212524414,
        -0.79354000091552734
      ],
      "type": "VEC3"
    },
    {
      "bufferView": 1,
      "byteOffset": 26736,
      "componentType": 5126,
      "count": 208,
      "max": [
        0.67925888299942017,
        0.99434906244277954,
        0.98314881324768066
      ],
      "min": [
        -0.85335767269134521,
        -0.96757745742797852,
        -0.98314881324768066
      ],
      "type": "VEC3"
    },
    {
      "bufferView": 0,
      "byteOffset": 6240,
      "componentType": 5125,
      "count": 300,
      "max": [
        207
      ],
      "min": [
        0
      ],
      "type": "SCALAR"
    },
    {
      "bufferView": 1,
      "byteOffset": 29232,
      "componentType": 5126,
      "count": 1744,
      "max": [
        1.0990200042724609,
        36.578128814697266,
        0.21740999817848206
      ],
      "min": [
        -1.6496800184249878,
        -2.8031799793243408,
        -0.070009998977184296
      ],
      "type": "VEC3"
    },
    {
      "bufferView": 1,
      "byteOffset": 50160,
      "componentType": 5126,
      "count": 1744,
      "max": [
        0.8585471510887146,
        0.24916039407253265,
        0.99795782566070557
      ],
      "min": [
        -0.97353893518447876,
        -0.23791076242923737,
        -0.99795782566070557
      ],
      "type": "VEC3"
    },
    {
      "bufferView": 0,
      "byteOffset": 7440,
      "componentType": 5125,
      "count": 2616,
      "max": [
        1743
      ],
      "min": [
        0
      ],
      "type": "SCALAR"
    },
    {
      "bufferView": 1,
      "byteOffset": 71088,
      "componentType": 5126,
      "count": 240,
      "max": [
        0.95105999708175659,
        1,
        1
      ],
      "min": [
        -0.95105999708175659,
        -1,
        -1
      ],
      "type": "VEC3"
    },
    {
      "bufferView": 1,
      "byteOffset": 73968,
      "componentType": 5126,
      "count": 240,
      "max": [
        0.99207723140716553,
        0.94352102279663086,
        0.94352495670318604
      ],
      "min": [
        -0.99207723140716553,
        -0.94352102279663086,
        -0.94352495670318604
      ],
      "type": "VEC3"
    },
    {
      "bufferView": 0,
      "byteOffset": 17904,
      "componentType": 5125,
      "count": 240,
      "max": [
        239
      ],
      "min": [
        0
      ],
      "type": "SCALAR"
    },
    {
      "bufferView": 1,
      "byteOffset": 76848,
      "componentType": 5126,
      "count": 240,
      "max": [
        0.95105999708175659,
        1,
        1
      ],
      "min": [
        -0.95105999708175659,
        -1,
        -1
      ],
      "type": "VEC3"
    },
    {
      "bufferView": 1,
      "byteOffset": 79728,
      "componentType": 5126,
      "count": 240,
      "max": [
        0.99207723140716553,
        0.94352102279663086,
        0.94352495670318604
      ],
      "min": [
        -0.99207723140716553,
        -0.94352102279663086,
        -0.94352495670318604
      ],
      "type": "VEC3"
    },
    {
      "bufferView": 0,
      "byteOffset": 18864,
      "componentType": 5125,
      "count": 240,
      "max": [
        239
      ],
      "min": [
        0
      ],
      "type": "SCALAR"
    },
    {
      "bufferView": 1,
      "byteOffset": 82608,
      "componentType": 5126,
      "count": 1744,
      "max": [
        1.0990200042724609,
        36.578128814697266,
        0.21740999817848206
      ],
      "min": [
        -1.6496800184249878,
        -2.8031799793243408,
        -0.070009998977184296
      ],
      "type": "VEC3"
    },
    {
      "bufferView": 1,
      "byteOffset": 103536,
      "componentType": 5126,
      "count": 1744,
      "max": [
        0.8585471510887146,
        0.24916039407253265,
        0.99795782566070557
      ],
      "min": [
        -0.97353893518447876,
        -0.23791076242923737,
        -0.99795782566070557
      ],
      "type": "VEC3"
    },
    {
      "bufferView": 0,
      "byteOffset": 19824,
      "componentType": 5125,
      "count": 2616,
      "max": [
        1743
      ],
      "min": [
        0
      ],
      "type": "SCALAR"
    }
  ],
  "asset": {
    "extras": {
      "author": "Zafflex (https://sketchfab.com/Zafflex)",
      "license": "CC-BY-4.0 (http://creativecommons.org/licenses/by/4.0/)",
      "source": "https://sketchfab.com/models/c8202e14dcdc48b899c4de779f771c5f",
      "title": "Low-poly Eagle"
    },
    "generator": "Sketchfab-4.4.0",
    "version": "2.0"
  },
  "bufferViews": [
    {
      "buffer": 0,
      "byteLength": 30288,
      "byteOffset": 0,
      "name": "floatBufferViews",
      "target": 34963
    },
    {
      "buffer": 0,
      "byteLength": 124464,
      "byteOffset": 30288,
      "byteStride": 12,
      "name": "floatBufferViews",
      "target": 34962
    }
  ],
  "buffers": [
    {
      "byteLength": 154752,
      "uri": "scene.bin"
    }
  ],
  "materials": [
    {
      "doubleSided": true,
      "emissiveFactor": [
        0,
        0,
        0
      ],
      "name": "Eagle",
      "pbrMetallicRoughness": {
        "baseColorFactor": [
          0.079990655199999997,
          0.039114374700000003,
          0.020193301100000002,
          1
        ],
        "metallicFactor": 0,
        "roughnessFactor": 0.59999999999999998
      }
    },
    {
      "doubleSided": true,
      "emissiveFactor": [
        0,
        0,
        0
      ],
      "name": "Eagle_-_White",
      "pbrMetallicRoughness": {
        "baseColorFactor": [
          0.60381537679999997,
          0.60381537679999997,
          0.60381537679999997,
          1
        ],
        "metallicFactor": 0,
        "roughnessFactor": 0.59999999999999998
      }
    },
    {
      "doubleSided": true,
      "emissiveFactor": [
        0,
        0,
        0
      ],
      "name": "Eagle_-_Beak",
      "pbrMetallicRoughness": {
        "baseColorFactor": [
          0.80000007149999997,
          0.51705992219999997,
          0.073030255700000005,
          1
        ],
        "metallicFactor": 0,
        "roughnessFactor": 0.59999999999999998
      }
    },
    {
      "doubleSided": true,
      "emissiveFactor": [
        0,
        0,
        0
      ],
      "name": "Eagle_-_Eye",
      "pbrMetallicRoughness": {
        "baseColorFactor": [
          0.0036420655000000001,
          0.0036420655000000001,
          0.0036420655000000001,
          1
        ],
        "metallicFactor": 0,
        "roughnessFactor": 0.59999999999999998
      }
    },
    {
      "doubleSided": true,
      "emissiveFactor": [
        0,
        0,
        0
      ],
      "name": "Eagle_-_Eye.001",
      "pbrMetallicRoughness": {
        "baseColorFactor": [
          0.0036420655000000001,
          0.0036420655000000001,
          0.0036420655000000001,
          1
        ],
        "metallicFactor": 0,
        "roughnessFactor": 0.59999999999999998
      }
    },
    {
      "doubleSided": true,
      "emissiveFactor": [
        0,
        0,
        0
      ],
      "name": "Eagle.001",
      "pbrMetallicRoughness": {
        "baseColorFactor": [
          0.079990655199999997,
          0.039114374700000003,
          0.020193301100000002,
          1
        ],
        "metallicFactor": 0,
        "roughnessFactor": 0.59999999999999998
      }
    }
  ],
  "meshes": [
    {
      "name": "Plane_0",
      "primitives": [
        {
          "attributes": {
            "NORMAL": 1,
            "POSITION": 0
          },
          "indices": 2,
          "material": 0,
          "mode": 4
        }
      ]
    },
    {
      "name": "Plane_1",
      "primitives": [
        {
          "attributes": {
            "NORMAL": 4,
            "POSITION": 3
          },
          "indices": 5,
          "material": 1,
          "mode": 4
        }
      ]
    },
    {
      "name": "Plane_2",
      "primitives": [
        {
          "attributes": {
            "NORMAL": 7,
            "POSITION": 6
          },
          "indices": 8,
          "material": 2,
          "mode": 4
        }
      ]
    },
    {
      "name": "Plane.001_0",
      "primitives": [
        {
          "attributes": {
            "NORMAL": 10,
            "POSITION": 9
          },
          "indices": 11,
          "material": 0,
          "mode": 4
        }
      ]
    },
    {
      "name": "Icosphere_0",
      "primitives": [
        {
          "attributes": {
            "NORMAL": 13,
            "POSITION": 12
          },
          "indices": 14,
          "material": 3,
          "mode": 4
        }
      ]
    },
    {
      "name": "Icosphere.001_0",
      "primitives": [
        {
          "attributes": {
            "NORMAL": 16,
            "POSITION": 15
          },
          "indices": 17,
          "material": 4,
          "mode": 4
        }
      ]
    },
    {
      "name": "Plane.002_0",
      "primitives": [
        {
          "attributes": {
            "NORMAL": 19,
            "POSITION": 18
          },
          "indices": 20,
          "material": 5,
          "mode": 4
        }
      ]
    }
  ],
  "nodes": [
    {
      "children": [
        1
      ],
      "name": "RootNode (gltf orientation matrix)",
      "rotation": [
        -0.70710678118654746,
        -0,
        -0,
        0.70710678118654757
      ]
    },
    {
      "children": [
        2
      ],
      "name": "RootNode (model correction matrix)"
    },
    {
      "children": [
        3
      ],
      "name": "Root"
    },
    {
      "children": [
        4,
        5,
        6,
        7,
        9,
        11,
        13
      ],
      "matrix": [
        0.087980000000000017,
        0,
        0,
        0,
        0,
        -0,
        0.20109000000000002,
        0,
        0,
        -0.20109000000000002,
        -0,
        0,
        0.53394000000000008,
        0,
        0.52104000000000006,
        1
      ],
      "name": "Plane"
    },
    {
      "mesh": 0,
      "name": "Plane_0"
    },
    {
      "mesh": 1,
      "name": "Plane_1"
    },
    {
      "mesh": 2,
      "name": "Plane_2"
    },
    {
      "children": [
        8
      ],
      "matrix": [
        11.740329999999998,
        0.42436000000000007,
        -0.094560000000000033,
        0,
        -0.050570000000000011,
        0.34576000000000007,
        0.34978000000000009,
        0,
        0.77039000000000002,
        -3.3398399999999993,
        3.3227899999999999,
        0,
        -21.680319999999998,
        0.54620999999999997,
        1.23207,
        1
      ],
      "name": "Plane.001"
    },
    {
      "mesh": 3,
      "name": "Plane.001_0"
    },
    {
      "children": [
        10
      ],
      "matrix": [
        0.27867000000000003,
        0,
        -0,
        0,
        0,
        -0,
        -0.12193000000000001,
        0,
        0,
        0.12193000000000001,
        -0,
        0,
        2.01918,
        0.73674000000000017,
        -0.64648000000000005,
        1
      ],
      "name": "Icosphere"
    },
    {
      "mesh": 4,
      "name": "Icosphere_0"
    },
    {
      "children": [
        12
      ],
      "matrix": [
        0.27867000000000003,
        0,
        -0,
        0,
        0,
        -0,
        -0.12193000000000001,
        0,
        0,
        0.12193000000000001,
        -0,
        0,
        2.01918,
        0.73674000000000017,
        0.64648000000000005,
        1
      ],
      "name": "Icosphere.001"
    },
    {
      "mesh": 5,
      "name": "Icosphere.001_0"
    },
    {
      "children": [
        14
      ],
      "matrix": [
        11.614339999999999,
        0.85438000000000003,
        -0.14960000000000001,
        0,
        -0.15597000000000003,
        0.34567000000000009,
        -0.34387000000000012,
        0,
        -1.0296799999999999,
        3.2709700000000002,
        3.3774099999999998,
        0,
        -21.625539999999997,
        0.16507000000000002,
        -1.6158999999999999,
        1
      ],
      "name": "Plane.002"
    },
    {
      "mesh": 6,
      "name": "Plane.002_0"
    }
  ],
  "scene": 0,
  "scenes": [
    {
      "name": "OSG_Scene",
      "nodes": [
        0
      ]
    }
  ]
}

