{
  "accessors": [
    {
      "bufferView": 2,
      "componentType": 5126,
      "count": 1667,
      "max": [
        5.0467000007629395,
        0.6284099817276001,
        3.5143699645996094
      ],
      "min": [
        -4.5380702018737793,
        -0.6284099817276001,
        -3.5143699645996094
      ],
      "type": "VEC3"
    },
    {
      "bufferView": 2,
      "byteOffset": 20004,
      "componentType": 5126,
      "count": 1667,
      "max": [
        0.99025166034698486,
        1,
        1
      ],
      "min": [
        -1,
        -1,
        -1
      ],
      "type": "VEC3"
    },
    {
      "bufferView": 3,
      "componentType": 5126,
      "count": 1667,
      "max": [
        0.92558819055557251,
        1,
        0.98581850528717041,
        1
      ],
      "min": [
        -0.74189078807830811,
        -1,
        -0.98474365472793579,
        -1
      ],
      "type": "VEC4"
    },
    {
      "bufferView": 1,
      "componentType": 5126,
      "count": 1667,
      "max": [
        0.99540001153945923,
        0.99501001834869385
      ],
      "min": [
        0.0046000001020729542,
        0.0049899998120963573
      ],
      "type": "VEC2"
    },
    {
      "bufferView": 0,
      "componentType": 5125,
      "count": 2736,
      "max": [
        1666
      ],
      "min": [
        0
      ],
      "type": "SCALAR"
    }
  ],
  "asset": {
    "extras": {
      "author": "Dakotes (https://sketchfab.com/lantripdakota)",
      "license": "CC-BY-4.0 (http://creativecommons.org/licenses/by/4.0/)",
      "source": "https://sketchfab.com/3d-models/toon-low-poly-anchor-eae6dca44f934789920ea38bb9de2e2a",
      "title": "Toon Low-Poly Anchor"
    },
    "generator": "Sketchfab-4.57.0",
    "version": "2.0"
  },
  "bufferViews": [
    {
      "buffer": 0,
      "byteLength": 10944,
      "byteOffset": 0,
      "name": "floatBufferViews",
      "target": 34963
    },
    {
      "buffer": 0,
      "byteLength": 13336,
      "byteOffset": 10944,
      "byteStride": 8,
      "name": "floatBufferViews",
      "target": 34962
    },
    {
      "buffer": 0,
      "byteLength": 40008,
      "byteOffset": 24280,
      "byteStride": 12,
      "name": "floatBufferViews",
      "target": 34962
    },
    {
      "buffer": 0,
      "byteLength": 26672,
      "byteOffset": 64288,
      "byteStride": 16,
      "name": "floatBufferViews",
      "target": 34962
    }
  ],
  "buffers": [
    {
      "byteLength": 90960,
      "uri": "scene.bin"
    }
  ],
  "images": [
    {
      "uri": "textures/Anchor_baseColor.png"
    }
  ],
  "materials": [
    {
      "doubleSided": true,
      "emissiveFactor": [
        0,
        0,
        0
      ],
      "name": "Anchor",
      "pbrMetallicRoughness": {
        "baseColorFactor": [
          1,
          1,
          1,
          1
        ],
        "baseColorTexture": {
          "index": 0,
          "texCoord": 0
        },
        "metallicFactor": 0,
        "roughnessFactor": 0.59999999999999998
      }
    }
  ],
  "meshes": [
    {
      "name": "Anchor_0",
      "primitives": [
        {
          "attributes": {
            "NORMAL": 1,
            "POSITION": 0,
            "TANGENT": 2,
            "TEXCOORD_0": 3
          },
          "indices": 4,
          "material": 0,
          "mode": 4
        }
      ]
    }
  ],
  "nodes": [
    {
      "children": [
        1
      ],
      "name": "RootNode (gltf orientation matrix)",
      "rotation": [
        -0.70710678118654746,
        -0,
        -0,
        0.70710678118654757
      ]
    },
    {
      "children": [
        2
      ],
      "name": "RootNode (model correction matrix)"
    },
    {
      "children": [
        3
      ],
      "name": "Root"
    },
    {
      "children": [
        4
      ],
      "matrix": [
        0,
        -1,
        0,
        0,
        -0,
        -0,
        -1,
        0,
        1,
        0,
        -0,
        0,
        0,
        -0.27231000000000005,
        -0,
        1
      ],
      "name": "Anchor"
    },
    {
      "mesh": 0,
      "name": "Anchor_0"
    }
  ],
  "samplers": [
    {
      "magFilter": 9729,
      "minFilter": 9987,
      "wrapS": 10497,
      "wrapT": 10497
    }
  ],
  "scene": 0,
  "scenes": [
    {
      "name": "OSG_Scene",
      "nodes": [
        0
      ]
    }
  ],
  "textures": [
    {
      "sampler": 0,
      "source": 0
    }
  ]
}

