{
  "accessors": [
    {
      "bufferView": 2,
      "componentType": 5126,
      "count": 173,
      "max": [
        6.5807857513427734,
        6.6436958312988281,
        7.9600462913513184
      ],
      "min": [
        -6.0895624160766602,
        -6.6170482635498047,
        -4.7902908325195312
      ],
      "type": "VEC3"
    },
    {
      "bufferView": 2,
      "byteOffset": 2076,
      "componentType": 5126,
      "count": 173,
      "max": [
        0.98983621597290039,
        0.99554049968719482,
        0.993155837059021
      ],
      "min": [
        -0.99467509984970093,
        -0.9894026517868042,
        -0.99860996007919312
      ],
      "type": "VEC3"
    },
    {
      "bufferView": 3,
      "componentType": 5126,
      "count": 173,
      "max": [
        0.97750002145767212,
        0.99684774875640869,
        0.99690854549407959,
        1
      ],
      "min": [
        -0.98968338966369629,
        -0.88679146766662598,
        -0.99822628498077393,
        1
      ],
      "type": "VEC4"
    },
    {
      "bufferView": 1,
      "componentType": 5126,
      "count": 173,
      "max": [
        0.99799996614456177,
        0.76900172233581543
      ],
      "min": [
        0.0020000000949949026,
        0.0020000000949949026
      ],
      "type": "VEC2"
    },
    {
      "bufferView": 0,
      "componentType": 5125,
      "count": 687,
      "max": [
        172
      ],
      "min": [
        0
      ],
      "type": "SCALAR"
    }
  ],
  "asset": {
    "extras": {
      "author": "Game Development Studio (https://sketchfab.com/white.wolf121212)",
      "license": "CC-BY-4.0 (http://creativecommons.org/licenses/by/4.0/)",
      "source": "https://sketchfab.com/models/463ead51d6254a12bfd623f840e5ca21",
      "title": "Low Polly Apple"
    },
    "generator": "Sketchfab-3.31.2",
    "version": "2.0"
  },
  "bufferViews": [
    {
      "buffer": 0,
      "byteLength": 2748,
      "byteOffset": 0,
      "name": "floatBufferViews",
      "target": 34963
    },
    {
      "buffer": 0,
      "byteLength": 1384,
      "byteOffset": 2748,
      "byteStride": 8,
      "name": "floatBufferViews",
      "target": 34962
    },
    {
      "buffer": 0,
      "byteLength": 4152,
      "byteOffset": 4132,
      "byteStride": 12,
      "name": "floatBufferViews",
      "target": 34962
    },
    {
      "buffer": 0,
      "byteLength": 2768,
      "byteOffset": 8284,
      "byteStride": 16,
      "name": "floatBufferViews",
      "target": 34962
    }
  ],
  "buffers": [
    {
      "byteLength": 11052,
      "uri": "scene.bin"
    }
  ],
  "images": [
    {
      "uri": "textures/Scene_-_Root_normal.png"
    },
    {
      "uri": "textures/Scene_-_Root_baseColor.png"
    }
  ],
  "materials": [
    {
      "doubleSided": true,
      "name": "Scene_-_Root",
      "normalTexture": {
        "index": 0,
        "scale": 1,
        "texCoord": 0
      },
      "pbrMetallicRoughness": {
        "baseColorFactor": [
          1,
          1,
          1,
          1
        ],
        "baseColorTexture": {
          "index": 1,
          "texCoord": 0
        },
        "metallicFactor": 0,
        "roughnessFactor": 0.34770832060000001
      }
    }
  ],
  "meshes": [
    {
      "name": "apple__0",
      "primitives": [
        {
          "attributes": {
            "NORMAL": 1,
            "POSITION": 0,
            "TANGENT": 2,
            "TEXCOORD_0": 3
          },
          "indices": 4,
          "material": 0,
          "mode": 4
        }
      ]
    }
  ],
  "nodes": [
    {
      "children": [
        1
      ],
      "name": "RootNode (gltf orientation matrix)",
      "rotation": [
        -0.70710678118654746,
        -0,
        -0,
        0.70710678118654757
      ]
    },
    {
      "children": [
        2
      ],
      "name": "RootNode (model correction matrix)"
    },
    {
      "children": [
        3
      ],
      "matrix": [
        1,
        0,
        0,
        0,
        0,
        0,
        1,
        0,
        0,
        -1,
        0,
        0,
        0,
        0,
        0,
        1
      ],
      "name": "5a8df4ac2786440ea94b26fcd357a2b9.fbx"
    },
    {
      "children": [
        4
      ],
      "name": "RootNode"
    },
    {
      "children": [
        5
      ],
      "matrix": [
        0.0082599343731999397,
        0,
        0,
        0,
        0,
        1.8340738646038667e-18,
        -0.0082599343731999397,
        0,
        0,
        0.0082599343731999397,
        1.8340738646038667e-18,
        0,
        0.00040391908260062337,
        0,
        -0.00036737587652169168,
        1
      ],
      "name": "apple"
    },
    {
      "children": [
        6
      ],
      "matrix": [
        1,
        0,
        -0,
        0,
        0,
        1,
        0,
        0,
        0,
        0,
        1,
        0,
        -0.22704724967479706,
        -0.0012967677321285009,
        -1.5983564853668213,
        1
      ],
      "name": ""
    },
    {
      "mesh": 0,
      "name": "apple__0"
    }
  ],
  "samplers": [
    {
      "magFilter": 9729,
      "minFilter": 9987,
      "wrapS": 10497,
      "wrapT": 10497
    }
  ],
  "scene": 0,
  "scenes": [
    {
      "name": "OSG_Scene",
      "nodes": [
        0
      ]
    }
  ],
  "textures": [
    {
      "sampler": 0,
      "source": 0
    },
    {
      "sampler": 0,
      "source": 1
    }
  ]
}

